<svg width="490" height="268" viewBox="0 0 490 268" fill="none" xmlns="http://www.w3.org/2000/svg">
<path d="M77.7084 244.35H65.2976V265.716H44.0018V244.35H0V229.189L45.2006 162.622H65.2976V227.426H77.7084V244.35ZM44.0018 227.426V209.938C44.0018 207.023 44.1194 202.792 44.3544 197.245C44.5895 191.698 44.7775 188.478 44.9185 187.584H44.3544C42.615 191.439 40.5231 195.2 38.0785 198.867L19.1803 227.426H44.0018Z" fill="#202020"/>
<path d="M154.432 214.169C154.432 232.174 151.471 245.501 145.547 254.151C139.671 262.801 130.598 267.126 118.328 267.126C106.435 267.126 97.4556 262.66 91.3913 253.728C85.3739 244.796 82.3652 231.61 82.3652 214.169C82.3652 195.976 85.3034 182.578 91.1797 173.975C97.056 165.325 106.106 161 118.328 161C130.222 161 139.201 165.513 145.265 174.539C151.377 183.565 154.432 196.775 154.432 214.169ZM104.014 214.169C104.014 226.815 105.095 235.888 107.257 241.388C109.467 246.841 113.157 249.568 118.328 249.568C123.405 249.568 127.072 246.794 129.329 241.247C131.585 235.7 132.713 226.674 132.713 214.169C132.713 201.523 131.562 192.45 129.258 186.95C127.002 181.403 123.358 178.629 118.328 178.629C113.204 178.629 109.537 181.403 107.328 186.95C105.118 192.45 104.014 201.523 104.014 214.169Z" fill="#202020"/>
<path d="M236.939 244.35H224.528V265.716H203.232V244.35H159.23V229.189L204.431 162.622H224.528V227.426H236.939V244.35ZM203.232 227.426V209.938C203.232 207.023 203.35 202.792 203.585 197.245C203.82 191.698 204.008 188.478 204.149 187.584H203.585C201.845 191.439 199.753 195.2 197.309 198.867L178.411 227.426H203.232Z" fill="#202020"/>
<path d="M265.712 231.516H248.506L244.91 162.622H269.308L265.712 231.516ZM244.628 255.632C244.628 251.683 245.685 248.698 247.801 246.677C249.916 244.655 252.996 243.644 257.038 243.644C260.94 243.644 263.949 244.679 266.064 246.747C268.227 248.816 269.308 251.777 269.308 255.632C269.308 259.346 268.227 262.284 266.064 264.447C263.902 266.562 260.893 267.62 257.038 267.62C253.09 267.62 250.034 266.586 247.871 264.517C245.709 262.402 244.628 259.44 244.628 255.632Z" fill="#202020"/>
<path fill-rule="evenodd" clip-rule="evenodd" d="M277.504 30.2356C264.542 31.4643 255.677 33.0018 240.134 36.7276C184.923 49.9574 140.833 80.3819 115.833 122.499C112.068 128.844 105.564 141.5 105.91 141.815C106.016 141.912 109.179 139.335 112.94 136.09C136.719 115.568 164.157 95.6173 181.023 86.5816C183.311 85.3563 185.452 84.1575 185.778 83.9184C186.815 83.158 196.349 79.0901 199.738 77.9611C203.322 76.7656 204.5 76.7955 201.407 78.0009C189.712 82.5569 172.237 93.3194 153.539 107.479C137.228 119.825 105.876 145.953 106.555 146.63C106.847 146.922 111.952 145.691 119.331 143.545C122.031 142.762 126.577 141.44 129.44 140.61C199.861 120.151 255.826 85.9142 272.752 52.9394C277.298 44.0797 283.46 37.0896 291.491 31.6768C295.461 29.0036 293.1 28.7579 277.504 30.2356Z" fill="#B3192A"/>
<path fill-rule="evenodd" clip-rule="evenodd" d="M378.653 186.04C374.141 183.019 370.874 181.174 364.881 178.268C343.593 167.943 321.459 166.01 302.481 172.818C299.622 173.844 294.245 176.155 294.276 176.347C294.285 176.405 295.975 176.419 298.031 176.377C311.032 176.112 325.069 176.991 332.863 178.558C333.92 178.771 334.923 178.953 335.09 178.963C335.623 178.994 339.76 180.211 341.148 180.743C342.617 181.307 342.99 181.626 341.678 181.195C336.715 179.566 328.278 178.388 318.566 177.967C310.096 177.599 293.195 177.653 293.24 178.047C293.259 178.217 295.229 179.169 298.172 180.429C299.248 180.891 301.061 181.667 302.202 182.157C330.281 194.187 357.244 198.034 371.246 192.006C375.008 190.386 378.809 189.786 382.807 190.179C384.783 190.374 384.082 189.675 378.653 186.04Z" fill="#B3192A"/>
<path fill-rule="evenodd" clip-rule="evenodd" d="M443.074 86.4851C434.587 85.8743 428.71 85.8981 418.297 86.5923C381.309 89.0549 349.681 103.598 329.131 127.591C326.036 131.206 320.51 138.524 320.7 138.76C320.759 138.833 323.069 137.54 325.835 135.888C343.326 125.44 363.115 115.745 374.94 111.83C376.544 111.299 378.051 110.77 378.286 110.653C379.035 110.283 385.61 108.728 387.913 108.376C390.35 108.003 391.106 108.148 388.985 108.58C380.966 110.212 368.567 115.156 355.021 122.119C343.206 128.19 320.243 141.377 320.609 141.879C320.767 142.095 324.188 141.862 329.171 141.294C330.994 141.087 334.064 140.737 335.997 140.518C383.552 135.107 423.238 119.422 437.621 100.354C441.484 95.2301 446.192 91.4637 451.939 88.8963C454.78 87.6289 453.284 87.2203 443.074 86.4851Z" fill="#B3192A"/>
<path fill-rule="evenodd" clip-rule="evenodd" d="M315.213 63.4864C312.967 64.4181 311.469 65.1775 308.899 66.6895C299.769 72.0592 293.556 79.827 291.383 88.5882C291.056 89.9082 290.583 92.4851 290.662 92.5212C290.686 92.5322 291.11 91.9059 291.605 91.1296C294.733 86.2195 298.544 81.2072 301.062 78.6918C301.403 78.3507 301.72 78.0222 301.765 77.9623C301.909 77.7718 303.389 76.532 303.932 76.1469C304.507 75.7393 304.718 75.6795 304.232 76.0616C302.393 77.5063 299.86 80.358 297.294 83.8724C295.055 86.9372 290.881 93.248 291.039 93.3292C291.107 93.3642 291.95 92.8662 293.15 92.0825C293.589 91.7959 294.328 91.3131 294.794 91.0094C306.245 83.5323 314.369 74.4401 315.598 67.727C315.928 65.9234 316.647 64.3581 317.786 62.9658C318.349 62.2779 317.914 62.3654 315.213 63.4864Z" fill="#B3192A"/>
<path fill-rule="evenodd" clip-rule="evenodd" d="M447.733 27.9238C442.537 26.306 438.874 25.4638 432.289 24.3777C408.898 20.5177 387.083 24.9616 370.788 36.9051C368.333 38.7051 363.826 42.4558 363.909 42.631C363.935 42.6846 365.562 42.2163 367.525 41.5912C379.94 37.6356 393.677 34.4845 401.611 33.7709C402.687 33.6742 403.702 33.5641 403.866 33.5259C404.386 33.4045 408.707 33.3951 410.193 33.5119C411.765 33.635 412.214 33.8355 410.83 33.7953C405.599 33.6422 397.157 34.9124 387.707 37.2733C379.465 39.3308 363.243 44.1938 363.398 44.5595C363.465 44.7173 365.629 45.0708 368.815 45.4439C369.98 45.5808 371.943 45.8106 373.178 45.9561C403.579 49.5211 430.578 45.5411 442.315 35.7645C445.467 33.1374 448.948 31.4786 452.902 30.718C454.856 30.3431 453.983 29.8705 447.733 27.9238Z" fill="#B3192A"/>
<path fill-rule="evenodd" clip-rule="evenodd" d="M487.133 137.792C485.131 136.413 483.679 135.567 481.014 134.231C471.547 129.481 461.65 128.483 453.113 131.417C451.828 131.859 449.407 132.862 449.419 132.948C449.423 132.974 450.18 132.99 451.1 132.984C456.922 132.943 463.2 133.421 466.68 134.169C467.152 134.27 467.599 134.358 467.674 134.363C467.912 134.38 469.757 134.95 470.375 135.196C471.03 135.458 471.195 135.603 470.61 135.402C468.398 134.643 464.628 134.065 460.283 133.819C456.494 133.603 448.928 133.526 448.945 133.702C448.953 133.779 449.829 134.217 451.139 134.798C451.618 135.011 452.425 135.37 452.933 135.596C465.43 141.149 477.477 143.033 483.781 140.419C485.475 139.716 487.18 139.47 488.967 139.67C489.851 139.769 489.541 139.452 487.133 137.792Z" fill="#B3192A"/>
</svg>
