<svg width="32" height="37" viewBox="0 0 32 37" fill="none" xmlns="http://www.w3.org/2000/svg">
<path d="M27.9626 36.7345H4.03739C3.49045 36.7352 2.94909 36.6344 2.44624 36.4384C1.94339 36.2424 1.48957 35.9553 1.11237 35.5945C0.735173 35.2337 0.44249 34.8067 0.252126 34.3396C0.0617624 33.8725 -0.0223033 33.375 0.00504395 32.8774L1.09378 11.7672C1.13884 10.8208 1.58348 9.92684 2.33486 9.27199C3.08625 8.61714 4.08627 8.25204 5.12612 8.25293H26.8739C27.9137 8.25204 28.9138 8.61714 29.6651 9.27199C30.4165 9.92684 30.8612 10.8208 30.9062 11.7672L31.995 32.8774C32.0223 33.375 31.9382 33.8725 31.7479 34.3396C31.5575 34.8067 31.2648 35.2337 30.8876 35.5945C30.5104 35.9553 30.0566 36.2424 29.5538 36.4384C29.0509 36.6344 28.5096 36.7352 27.9626 36.7345ZM5.12612 10.7142C4.76964 10.7142 4.42776 10.8432 4.17569 11.0728C3.92362 11.3024 3.782 11.6139 3.782 11.9386L2.69327 32.9998C2.68416 33.1657 2.71218 33.3316 2.77563 33.4873C2.83909 33.643 2.93665 33.7853 3.06238 33.9055C3.18811 34.0258 3.33939 34.1215 3.507 34.1869C3.67462 34.2522 3.85507 34.2858 4.03739 34.2856H27.9626C28.1449 34.2858 28.3254 34.2522 28.493 34.1869C28.6606 34.1215 28.8119 34.0258 28.9376 33.9055C29.0634 33.7853 29.1609 33.643 29.2244 33.4873C29.2878 33.3316 29.3158 33.1657 29.3067 32.9998L28.218 11.8897C28.218 11.5649 28.0764 11.2535 27.8243 11.0238C27.5722 10.7942 27.2304 10.6652 26.8739 10.6652L5.12612 10.7142Z" fill="white"/>
<path d="M24.0644 9.48978H21.3762V7.34693C21.3762 6.04791 20.8098 4.8021 19.8015 3.88355C18.7932 2.96501 17.4257 2.44898 15.9997 2.44898C14.5738 2.44898 13.2063 2.96501 12.198 3.88355C11.1897 4.8021 10.6233 6.04791 10.6233 7.34693V9.48978H7.93506V7.34693C7.93506 5.3984 8.78473 3.52968 10.2972 2.15187C11.8096 0.774049 13.8609 0 15.9997 0C18.1386 0 20.1899 0.774049 21.7023 2.15187C23.2148 3.52968 24.0644 5.3984 24.0644 7.34693V9.48978Z" fill="white"/>
</svg>
