<svg width="14" height="17" viewBox="0 0 14 17" fill="none" xmlns="http://www.w3.org/2000/svg">
<path d="M12.2336 16.0714H1.76636C1.52707 16.0716 1.29023 16.0276 1.07023 15.9418C0.850235 15.8561 0.651686 15.7304 0.486662 15.5726C0.321638 15.4147 0.19359 15.228 0.110305 15.0236C0.0270211 14.8192 -0.00975769 14.6016 0.00220673 14.3839L0.478527 5.14816C0.498241 4.7341 0.692773 4.34299 1.0215 4.05649C1.35023 3.77 1.78774 3.61027 2.24268 3.61066H11.7573C12.2123 3.61027 12.6498 3.77 12.9785 4.05649C13.3072 4.34299 13.5018 4.7341 13.5215 5.14816L13.9978 14.3839C14.0098 14.6016 13.973 14.8192 13.8897 15.0236C13.8064 15.228 13.6784 15.4147 13.5133 15.5726C13.3483 15.7304 13.1498 15.8561 12.9298 15.9418C12.7098 16.0276 12.4729 16.0716 12.2336 16.0714ZM2.24268 4.68744C2.08672 4.68744 1.93714 4.74388 1.82686 4.84435C1.71658 4.94482 1.65463 5.08108 1.65463 5.22316L1.17831 14.4374C1.17432 14.51 1.18658 14.5826 1.21434 14.6507C1.2421 14.7188 1.28478 14.7811 1.33979 14.8337C1.3948 14.8863 1.46098 14.9282 1.53431 14.9567C1.60765 14.9853 1.68659 15 1.76636 14.9999H12.2336C12.3134 15 12.3924 14.9853 12.4657 14.9567C12.539 14.9282 12.6052 14.8863 12.6602 14.8337C12.7152 14.7811 12.7579 14.7188 12.7857 14.6507C12.8134 14.5826 12.8257 14.51 12.8217 14.4374L12.3454 5.20173C12.3454 5.05965 12.2834 4.92339 12.1731 4.82292C12.0629 4.72245 11.9133 4.66601 11.7573 4.66601L2.24268 4.68744Z" fill="white"/>
<path d="M10.5283 4.15178H9.35218V3.21428C9.35218 2.64596 9.10436 2.10092 8.66324 1.69905C8.22211 1.29719 7.62382 1.07143 6.99998 1.07143C6.37614 1.07143 5.77785 1.29719 5.33672 1.69905C4.8956 2.10092 4.64778 2.64596 4.64778 3.21428V4.15178H3.47168V3.21428C3.47168 2.3618 3.84341 1.54424 4.50509 0.941441C5.16678 0.338647 6.06422 0 6.99998 0C7.93574 0 8.83318 0.338647 9.49486 0.941441C10.1565 1.54424 10.5283 2.3618 10.5283 3.21428V4.15178Z" fill="white"/>
</svg>
