<svg width="32" height="32" viewBox="0 0 32 32" fill="none" xmlns="http://www.w3.org/2000/svg">
<path d="M27.311 4H4.689C3.71094 4.00106 2.77324 4.39006 2.08165 5.08165C1.39006 5.77324 1.00106 6.71094 1 7.689V24.311C1.00106 25.2891 1.39006 26.2268 2.08165 26.9183C2.77324 27.6099 3.71094 27.9989 4.689 28H27.311C28.2891 27.9989 29.2268 27.6099 29.9183 26.9183C30.6099 26.2268 30.9989 25.2891 31 24.311V7.689C30.9989 6.71094 30.6099 5.77324 29.9183 5.08165C29.2268 4.39006 28.2891 4.00106 27.311 4ZM4.689 6H27.311C27.7588 6.00053 28.1881 6.17865 28.5047 6.49528C28.8214 6.81192 28.9995 7.24121 29 7.689V8.454L16 16.811L3 8.454V7.689C3.00053 7.24121 3.17865 6.81192 3.49528 6.49528C3.81192 6.17865 4.24121 6.00053 4.689 6ZM27.311 26H4.689C4.24121 25.9995 3.81192 25.8214 3.49528 25.5047C3.17865 25.1881 3.00053 24.7588 3 24.311V10.832L15.459 18.841C15.6203 18.9448 15.8082 19 16 19C16.1918 19 16.3797 18.9448 16.541 18.841L29 10.832V24.311C28.9995 24.7588 28.8214 25.1881 28.5047 25.5047C28.1881 25.8214 27.7588 25.9995 27.311 26Z" fill="#78797B"/>
</svg>
