<svg width="20" height="20" viewBox="0 0 20 20" fill="none" xmlns="http://www.w3.org/2000/svg">
<g clip-path="url(#clip0)">
<path d="M19.7423 15.8749L11.5386 2.2697C11.2154 1.73373 10.6259 1.40076 9.99998 1.40076C9.37408 1.40076 8.78451 1.73373 8.46127 2.26974L0.257634 15.8749C-0.076389 16.4288 -0.0862718 17.1229 0.231814 17.6862C0.549978 18.2495 1.14943 18.5994 1.79631 18.5994H18.2036C18.8505 18.5994 19.45 18.2495 19.7682 17.6861C20.0863 17.1228 20.0764 16.4288 19.7423 15.8749ZM18.6344 17.0459C18.5468 17.2009 18.3817 17.2973 18.2036 17.2973H1.79631C1.61822 17.2973 1.45318 17.201 1.36564 17.0459C1.27806 16.8908 1.2808 16.6997 1.37271 16.5473L9.57642 2.94212C9.66541 2.79459 9.82771 2.70291 10 2.70291C10.1723 2.70291 10.3346 2.79459 10.4236 2.94212L18.6272 16.5473C18.7192 16.6998 18.7219 16.8908 18.6344 17.0459Z" fill="#D9534F"/>
<path d="M10.0059 6.75818C9.51059 6.75818 9.12402 7.02396 9.12402 7.49513C9.12402 8.93271 9.29312 10.9985 9.29312 12.4361C9.29316 12.8106 9.61937 12.9676 10.0059 12.9676C10.2959 12.9676 10.7066 12.8106 10.7066 12.4361C10.7066 10.9985 10.8757 8.93275 10.8757 7.49513C10.8757 7.024 10.4771 6.75818 10.0059 6.75818Z" fill="#D9534F"/>
<path d="M10.0181 13.8011C9.4866 13.8011 9.08789 14.224 9.08789 14.7314C9.08789 15.2267 9.48656 15.6616 10.0181 15.6616C10.5134 15.6616 10.9363 15.2267 10.9363 14.7314C10.9363 14.224 10.5134 13.8011 10.0181 13.8011Z" fill="#D9534F"/>
</g>
<defs>
<clipPath id="clip0">
<rect width="20" height="20" fill="white"/>
</clipPath>
</defs>
</svg>
