<svg width="14" height="17" viewBox="0 0 14 17" fill="none" xmlns="http://www.w3.org/2000/svg">
<path d="M12.2336 16.0715H1.76636C1.52707 16.0718 1.29023 16.0277 1.07023 15.942C0.850235 15.8562 0.651686 15.7306 0.486662 15.5728C0.321638 15.4149 0.19359 15.2281 0.110305 15.0238C0.0270211 14.8194 -0.00975769 14.6018 0.00220673 14.384L0.478527 5.14834C0.498241 4.73428 0.692773 4.34317 1.0215 4.05668C1.35023 3.77018 1.78774 3.61045 2.24268 3.61084H11.7573C12.2123 3.61045 12.6498 3.77018 12.9785 4.05668C13.3072 4.34317 13.5018 4.73428 13.5215 5.14834L13.9978 14.384C14.0098 14.6018 13.973 14.8194 13.8897 15.0238C13.8064 15.2281 13.6784 15.4149 13.5133 15.5728C13.3483 15.7306 13.1498 15.8562 12.9298 15.942C12.7098 16.0277 12.4729 16.0718 12.2336 16.0715ZM2.24268 4.68763C2.08672 4.68763 1.93714 4.74407 1.82686 4.84453C1.71658 4.945 1.65463 5.08126 1.65463 5.22334L1.17831 14.4376C1.17432 14.5102 1.18658 14.5827 1.21434 14.6509C1.2421 14.719 1.28478 14.7812 1.33979 14.8339C1.3948 14.8865 1.46098 14.9284 1.53431 14.9569C1.60765 14.9855 1.68659 15.0002 1.76636 15.0001H12.2336C12.3134 15.0002 12.3924 14.9855 12.4657 14.9569C12.539 14.9284 12.6052 14.8865 12.6602 14.8339C12.7152 14.7812 12.7579 14.719 12.7857 14.6509C12.8134 14.5827 12.8257 14.5102 12.8217 14.4376L12.3454 5.20191C12.3454 5.05983 12.2834 4.92357 12.1731 4.8231C12.0629 4.72264 11.9133 4.6662 11.7573 4.6662L2.24268 4.68763Z" fill="white"/>
<path d="M10.5283 4.15178H9.35224V3.21428C9.35224 2.64596 9.10442 2.10092 8.6633 1.69905C8.22217 1.29719 7.62388 1.07143 7.00004 1.07143C6.3762 1.07143 5.77791 1.29719 5.33678 1.69905C4.89566 2.10092 4.64784 2.64596 4.64784 3.21428V4.15178H3.47174V3.21428C3.47174 2.3618 3.84347 1.54424 4.50516 0.941441C5.16684 0.338647 6.06428 0 7.00004 0C7.9358 0 8.83324 0.338647 9.49493 0.941441C10.1566 1.54424 10.5283 2.3618 10.5283 3.21428V4.15178Z" fill="white"/>
</svg>
