<svg width="20" height="20" viewBox="0 0 20 20" fill="none" xmlns="http://www.w3.org/2000/svg">
<path d="M9.99992 18.9333C9.9178 18.9337 9.83644 18.9177 9.76059 18.8862C9.68475 18.8547 9.61596 18.8084 9.55825 18.75L4.75826 13.95C3.72025 12.9131 3.01312 11.5916 2.72633 10.1527C2.43953 8.71376 2.58596 7.22212 3.14708 5.86646C3.70821 4.51079 4.65882 3.35201 5.87865 2.53672C7.09848 1.72143 8.53272 1.28625 9.99992 1.28625C11.4671 1.28625 12.9014 1.72143 14.1212 2.53672C15.341 3.35201 16.2916 4.51079 16.8528 5.86646C17.4139 7.22212 17.5603 8.71376 17.2735 10.1527C16.9867 11.5916 16.2796 12.9131 15.2416 13.95L10.4416 18.75C10.3839 18.8084 10.3151 18.8547 10.2392 18.8862C10.1634 18.9177 10.082 18.9337 9.99992 18.9333ZM9.99992 2.54167C8.7809 2.54252 7.58947 2.90465 6.57616 3.58231C5.56285 4.25997 4.77312 5.22276 4.30674 6.34904C3.84035 7.47532 3.71824 8.71456 3.95582 9.91021C4.19341 11.1059 4.78003 12.2043 5.64159 13.0667L9.99992 17.425L14.3583 13.0667C15.2198 12.2043 15.8064 11.1059 16.044 9.91021C16.2816 8.71456 16.1595 7.47532 15.6931 6.34904C15.2267 5.22276 14.437 4.25997 13.4237 3.58231C12.4104 2.90465 11.2189 2.54252 9.99992 2.54167Z" fill="#78797B"/>
<path d="M9.99999 11.4584C9.38193 11.4584 8.77774 11.2751 8.26384 10.9317C7.74994 10.5883 7.3494 10.1003 7.11288 9.52926C6.87635 8.95824 6.81447 8.32991 6.93505 7.72372C7.05563 7.11753 7.35325 6.56071 7.79029 6.12367C8.22733 5.68663 8.78415 5.389 9.39034 5.26842C9.99653 5.14784 10.6249 5.20973 11.1959 5.44625C11.7669 5.68278 12.2549 6.08332 12.5983 6.59722C12.9417 7.11112 13.125 7.71531 13.125 8.33338C13.125 9.16218 12.7957 9.95703 12.2097 10.5431C11.6236 11.1291 10.8288 11.4584 9.99999 11.4584ZM9.99999 6.45838C9.62915 6.45838 9.26664 6.56834 8.9583 6.77437C8.64996 6.9804 8.40964 7.27323 8.26772 7.61584C8.12581 7.95846 8.08868 8.33546 8.16103 8.69917C8.23337 9.06289 8.41195 9.39698 8.67417 9.6592C8.93639 9.92142 9.27049 10.1 9.6342 10.1723C9.99791 10.2447 10.3749 10.2076 10.7175 10.0657C11.0601 9.92374 11.353 9.68341 11.559 9.37507C11.765 9.06673 11.875 8.70422 11.875 8.33338C11.875 7.8361 11.6774 7.35918 11.3258 7.00755C10.9742 6.65592 10.4973 6.45838 9.99999 6.45838Z" fill="#78797B"/>
</svg>
