<svg width="16" height="17" viewBox="0 0 16 17" fill="none" xmlns="http://www.w3.org/2000/svg">
<path d="M15.0175 12.0031C14.991 11.9797 11.9965 9.70275 11.184 9.85203C10.7935 9.92534 10.57 10.208 10.1225 10.7748C10.0505 10.8662 9.877 11.0845 9.743 11.2402C9.46016 11.1423 9.18429 11.023 8.9175 10.8832C7.54026 10.1708 6.4275 8.98847 5.757 7.52516C5.62543 7.24169 5.51315 6.94858 5.421 6.64806C5.568 6.50516 5.774 6.32081 5.862 6.24219C6.3925 5.76937 6.6585 5.53191 6.7275 5.11647C6.869 4.25637 4.725 1.07206 4.703 1.04338C4.60536 0.896249 4.4782 0.773991 4.33069 0.685428C4.18317 0.596864 4.01899 0.544205 3.85 0.53125C2.981 0.53125 0.5 3.95037 0.5 4.52678C0.5 4.56025 0.5455 7.96238 4.494 12.2299C8.506 16.4204 11.708 16.4688 11.7395 16.4688C12.282 16.4688 15.5 13.8327 15.5 12.9094C15.4878 12.7298 15.4382 12.5553 15.3548 12.3985C15.2713 12.2418 15.1561 12.1067 15.0175 12.0031ZM11.6845 15.4031C11.2475 15.3648 8.5605 14.9882 5.201 11.4814C1.8835 7.89278 1.538 5.02988 1.5035 4.58628C2.15889 3.49331 2.9504 2.49954 3.8565 1.632C3.8765 1.65325 3.903 1.68512 3.937 1.72656C4.63191 2.73447 5.23054 3.81346 5.724 4.94753C5.56353 5.11906 5.39392 5.28065 5.216 5.4315C4.9401 5.65486 4.68674 5.90803 4.46 6.18694L4.3385 6.36756L4.3745 6.58591C4.48031 7.07292 4.64238 7.54417 4.857 7.98894C5.62594 9.66664 6.90188 11.0221 8.481 11.8389C8.89952 12.0673 9.34307 12.2396 9.8015 12.3521L10.007 12.3903L10.177 12.2612C10.4405 12.0193 10.6798 11.749 10.891 11.4548C11.0475 11.2561 11.257 10.991 11.336 10.9161C12.4064 11.4399 13.4245 12.0767 14.375 12.8169C14.4165 12.8541 14.4455 12.8828 14.465 12.9014C13.6486 13.8644 12.7133 14.7056 11.6845 15.402V15.4031Z" fill="#78797B"/>
</svg>
