<svg width="16" height="17" viewBox="0 0 16 17" fill="none" xmlns="http://www.w3.org/2000/svg">
<path d="M13.6555 2.125H2.3445C1.85547 2.12556 1.38662 2.33222 1.04083 2.69963C0.69503 3.06704 0.500529 3.56519 0.5 4.08478V12.9152C0.500529 13.4348 0.69503 13.933 1.04083 14.3004C1.38662 14.6678 1.85547 14.8744 2.3445 14.875H13.6555C14.1445 14.8744 14.6134 14.6678 14.9592 14.3004C15.305 13.933 15.4995 13.4348 15.5 12.9152V4.08478C15.4995 3.56519 15.305 3.06704 14.9592 2.69963C14.6134 2.33222 14.1445 2.12556 13.6555 2.125V2.125ZM2.3445 3.1875H13.6555C13.8794 3.18778 14.094 3.28241 14.2524 3.45062C14.4107 3.61883 14.4997 3.84689 14.5 4.08478V4.49119L8 8.93084L1.5 4.49119V4.08478C1.50026 3.84689 1.58932 3.61883 1.74764 3.45062C1.90596 3.28241 2.12061 3.18778 2.3445 3.1875V3.1875ZM13.6555 13.8125H2.3445C2.12061 13.8122 1.90596 13.7176 1.74764 13.5494C1.58932 13.3812 1.50026 13.1531 1.5 12.9152V5.7545L7.7295 10.0093C7.81017 10.0644 7.90408 10.0937 8 10.0937C8.09592 10.0937 8.18983 10.0644 8.2705 10.0093L14.5 5.7545V12.9152C14.4997 13.1531 14.4107 13.3812 14.2524 13.5494C14.094 13.7176 13.8794 13.8122 13.6555 13.8125V13.8125Z" fill="#78797B"/>
</svg>
