<svg width="18" height="22" viewBox="0 0 18 22" fill="none" xmlns="http://www.w3.org/2000/svg">
<path d="M15.2561 22H2.20275C1.90435 22.0003 1.60899 21.94 1.33464 21.8226C1.06029 21.7052 0.812691 21.5333 0.606897 21.3172C0.401102 21.1011 0.241418 20.8454 0.137557 20.5657C0.0336969 20.2859 -0.0121684 19.988 0.00275192 19.69L0.596752 7.04729C0.621336 6.4805 0.86393 5.94511 1.27388 5.55293C1.68382 5.16075 2.22942 4.9421 2.79675 4.94263H14.6621C15.2294 4.9421 15.775 5.16075 16.185 5.55293C16.5949 5.94511 16.8375 6.4805 16.8621 7.04729L17.4561 19.69C17.471 19.988 17.4251 20.2859 17.3213 20.5657C17.2174 20.8454 17.0577 21.1011 16.8519 21.3172C16.6461 21.5333 16.3985 21.7052 16.1242 21.8226C15.8498 21.94 15.5545 22.0003 15.2561 22ZM2.79675 6.41663C2.60226 6.41663 2.41573 6.49389 2.27821 6.63142C2.14068 6.76894 2.06342 6.95547 2.06342 7.14996L1.46942 19.7633C1.46445 19.8626 1.47973 19.962 1.51435 20.0552C1.54897 20.1484 1.6022 20.2337 1.6708 20.3057C1.7394 20.3777 1.82193 20.4351 1.91338 20.4742C2.00483 20.5133 2.10328 20.5334 2.20275 20.5333H15.2561C15.3556 20.5334 15.454 20.5133 15.5455 20.4742C15.6369 20.4351 15.7194 20.3777 15.788 20.3057C15.8566 20.2337 15.9099 20.1484 15.9445 20.0552C15.9791 19.962 15.9944 19.8626 15.9894 19.7633L15.3954 7.12063C15.3954 6.92614 15.3182 6.73961 15.1806 6.60208C15.0431 6.46456 14.8566 6.38729 14.6621 6.38729L2.79675 6.41663Z" fill="#71867E"/>
<path d="M13.1293 5.68333H11.6627V4.4C11.6627 3.62203 11.3536 2.87593 10.8035 2.32582C10.2534 1.77571 9.50731 1.46667 8.72935 1.46667C7.95138 1.46667 7.20527 1.77571 6.65517 2.32582C6.10506 2.87593 5.79601 3.62203 5.79601 4.4V5.68333H4.32935V4.4C4.32935 3.23305 4.79292 2.11389 5.61808 1.28873C6.44324 0.46357 7.56239 0 8.72935 0C9.8963 0 11.0155 0.46357 11.8406 1.28873C12.6658 2.11389 13.1293 3.23305 13.1293 4.4V5.68333Z" fill="#71867E"/>
</svg>
