<svg width="24" height="29" viewBox="0 0 24 29" fill="none" xmlns="http://www.w3.org/2000/svg">
<path d="M11.9997 28.2933C11.8683 28.2939 11.7382 28.2683 11.6168 28.2179C11.4955 28.1675 11.3854 28.0934 11.2931 27.9999L3.61306 20.3199C1.95225 18.6608 0.820845 16.5464 0.361974 14.2442C-0.0968973 11.9419 0.137386 9.55533 1.03519 7.38627C1.93299 5.2172 3.45396 3.36316 5.40569 2.05869C7.35742 0.754222 9.6522 0.0579453 11.9997 0.0579453C14.3473 0.0579453 16.642 0.754222 18.5938 2.05869C20.5455 3.36316 22.0665 5.2172 22.9643 7.38627C23.8621 9.55533 24.0964 11.9419 23.6375 14.2442C23.1786 16.5464 22.0472 18.6608 20.3864 20.3199L12.7064 27.9999C12.6141 28.0934 12.504 28.1675 12.3827 28.2179C12.2613 28.2683 12.1311 28.2939 11.9997 28.2933ZM11.9997 2.06661C10.0493 2.06798 8.14301 2.64738 6.52171 3.73164C4.90042 4.8159 3.63685 6.35635 2.89063 8.1584C2.14442 9.96045 1.94904 11.9432 2.32917 13.8563C2.70931 15.7693 3.64791 17.5268 5.02639 18.9066L11.9997 25.8799L18.9731 18.9066C20.3515 17.5268 21.2901 15.7693 21.6703 13.8563C22.0504 11.9432 21.855 9.96045 21.1088 8.1584C20.3626 6.35635 19.099 4.8159 17.4777 3.73164C15.8564 2.64738 13.9502 2.06798 11.9997 2.06661Z" fill="#78797B"/>
<path d="M12 16.3334C11.0111 16.3334 10.0444 16.0402 9.22214 15.4908C8.3999 14.9414 7.75904 14.1605 7.3806 13.2468C7.00217 12.3332 6.90315 11.3279 7.09608 10.358C7.289 9.38807 7.7652 8.49715 8.46446 7.79789C9.16372 7.09863 10.0546 6.62242 11.0245 6.4295C11.9944 6.23657 12.9998 6.33559 13.9134 6.71402C14.827 7.09246 15.6079 7.73333 16.1573 8.55557C16.7067 9.37782 17 10.3445 17 11.3334C17 12.6595 16.4732 13.9313 15.5355 14.869C14.5978 15.8066 13.3261 16.3334 12 16.3334ZM12 8.33342C11.4066 8.33342 10.8266 8.50937 10.3333 8.83901C9.83994 9.16866 9.45542 9.63719 9.22836 10.1854C9.0013 10.7336 8.94189 11.3368 9.05764 11.9187C9.1734 12.5006 9.45912 13.0352 9.87867 13.4547C10.2982 13.8743 10.8328 14.16 11.4147 14.2758C11.9967 14.3915 12.5999 14.3321 13.148 14.1051C13.6962 13.878 14.1647 13.4935 14.4944 13.0001C14.824 12.5068 15 11.9268 15 11.3334C15 10.5378 14.6839 9.77471 14.1213 9.2121C13.5587 8.64949 12.7956 8.33342 12 8.33342Z" fill="#78797B"/>
</svg>
