<svg width="24" height="29" viewBox="0 0 24 29" fill="none" xmlns="http://www.w3.org/2000/svg">
<path d="M11.8193 13.8569C13.723 13.8569 15.3712 13.1742 16.7183 11.8271C18.065 10.4802 18.748 8.83216 18.748 6.92825C18.748 5.025 18.0652 3.37678 16.7181 2.02945C15.371 0.682773 13.7228 0 11.8193 0C9.91541 0 8.2674 0.682773 6.92051 2.02966C5.57362 3.37656 4.89062 5.02478 4.89062 6.92825C4.89062 8.83216 5.57362 10.4804 6.92051 11.8273C8.26784 13.1739 9.91607 13.8569 11.8193 13.8569ZM8.11267 3.22161C9.14616 2.18812 10.3585 1.68575 11.8193 1.68575C13.2799 1.68575 14.4925 2.18812 15.5262 3.22161C16.5597 4.25532 17.0623 5.46789 17.0623 6.92825C17.0623 8.38905 16.5597 9.6014 15.5262 10.6351C14.4925 11.6688 13.2799 12.1712 11.8193 12.1712C10.359 12.1712 9.1466 11.6686 8.11267 10.6351C7.07897 9.60162 6.57638 8.38905 6.57638 6.92825C6.57638 5.46789 7.07897 4.25532 8.11267 3.22161Z" fill="#A4231F"/>
<path d="M23.9418 22.1202C23.903 21.5596 23.8244 20.9482 23.7088 20.3025C23.592 19.652 23.4417 19.037 23.2617 18.475C23.0756 17.894 22.823 17.3203 22.5102 16.7706C22.1861 16.2 21.8051 15.7031 21.3775 15.2942C20.9305 14.8664 20.3831 14.5225 19.7502 14.2717C19.1194 14.0221 18.4204 13.8957 17.6727 13.8957C17.379 13.8957 17.095 14.0162 16.5466 14.3733C16.209 14.5934 15.8142 14.848 15.3735 15.1296C14.9967 15.3697 14.4862 15.5947 13.8556 15.7983C13.2404 15.9974 12.6158 16.0983 11.9991 16.0983C11.3828 16.0983 10.7582 15.9974 10.1426 15.7983C9.51274 15.5949 9.00203 15.3699 8.62586 15.1298C8.18933 14.8509 7.79428 14.5963 7.45169 14.3731C6.90367 14.016 6.61968 13.8955 6.32602 13.8955C5.57807 13.8955 4.87927 14.0221 4.24873 14.2719C3.61622 14.5223 3.06864 14.8662 2.62114 15.2944C2.19361 15.7035 1.81261 16.2002 1.48867 16.7706C1.17636 17.3203 0.923533 17.8938 0.737422 18.4752C0.557675 19.0373 0.407338 19.652 0.290579 20.3025C0.174699 20.9473 0.0963477 21.559 0.0575014 22.1208C0.0193134 22.6702 0 23.2419 0 23.8195C0 25.3212 0.477349 26.5368 1.41866 27.4333C2.34834 28.318 3.57825 28.7666 5.07438 28.7666H18.9256C20.4213 28.7666 21.6512 28.318 22.5811 27.4333C23.5227 26.5375 24 25.3214 24 23.8193C23.9998 23.2397 23.9802 22.668 23.9418 22.1202ZM21.4188 26.212C20.8045 26.7967 19.989 27.0809 18.9254 27.0809H5.07438C4.01061 27.0809 3.19505 26.7967 2.58098 26.2122C1.97853 25.6387 1.68575 24.8559 1.68575 23.8195C1.68575 23.2805 1.70353 22.7483 1.73909 22.2374C1.77376 21.7361 1.84465 21.1854 1.94978 20.6003C2.05359 20.0225 2.18571 19.4802 2.34285 18.9892C2.49363 18.5184 2.69927 18.0523 2.9543 17.6032C3.19769 17.1753 3.47773 16.8081 3.78675 16.5123C4.07579 16.2355 4.44011 16.009 4.8694 15.8391C5.26642 15.682 5.7126 15.596 6.19697 15.583C6.25601 15.6144 6.36114 15.6743 6.53145 15.7854C6.87799 16.0112 7.27743 16.2689 7.719 16.5509C8.21676 16.8682 8.85806 17.1549 9.62423 17.4022C10.4075 17.6555 11.2064 17.7841 11.9993 17.7841C12.7923 17.7841 13.5914 17.6555 14.3742 17.4024C15.1411 17.1546 15.7821 16.8682 16.2806 16.5504C16.7324 16.2616 17.1207 16.0114 17.4672 15.7854C17.6375 15.6745 17.7427 15.6144 17.8017 15.583C18.2863 15.596 18.7325 15.682 19.1297 15.8391C19.5588 16.009 19.9231 16.2357 20.2122 16.5123C20.5212 16.8079 20.8012 17.1751 21.0446 17.6035C21.2999 18.0523 21.5057 18.5187 21.6563 18.989C21.8136 19.4806 21.946 20.0227 22.0496 20.6001C22.1545 21.1863 22.2256 21.7372 22.2603 22.2376C22.296 22.7465 22.314 23.279 22.3142 23.8195C22.314 24.8561 22.0213 25.6387 21.4188 26.212Z" fill="#A4231F"/>
</svg>
