<svg width="30" height="26" viewBox="0 0 30 26" fill="none" xmlns="http://www.w3.org/2000/svg">
<path d="M27.6544 7.85941H24.1749L21.3083 1.7121C20.6172 0.230066 18.8492 -0.413341 17.3672 0.277663C15.8816 0.970376 15.2399 2.7331 15.9327 4.21879L17.6303 7.85941H12.3698L14.0674 4.21879C14.4022 3.50083 14.4374 2.69553 14.1665 1.95115C13.2648 -0.525461 9.80105 -0.666658 8.69182 1.7121L5.82524 7.85941H2.34569C0.826612 7.85941 -0.292642 9.28206 0.0680178 10.7597L3.177 23.5014C3.52964 24.9469 4.8151 25.9564 6.30297 25.9564H23.6971C25.185 25.9564 26.4704 24.9469 26.8231 23.5014L29.932 10.7597C30.2922 9.284 29.1754 7.85941 27.6544 7.85941ZM17.6432 3.42121C17.3105 2.70773 17.8342 1.88721 18.6189 1.88721C19.0253 1.88721 19.4151 2.11788 19.5978 2.50974L22.0924 7.85941H19.7128L17.6432 3.42121ZM10.4023 2.50974C10.6536 1.97085 11.2964 1.73687 11.8353 1.98818C12.3742 2.2395 12.6082 2.88231 12.3569 3.42121L10.2873 7.85941H7.90769L10.4023 2.50974ZM28.0985 10.3123L24.9895 23.0541C24.8436 23.6517 24.3122 24.069 23.6971 24.069H6.30297C5.68782 24.069 5.15641 23.6516 5.01056 23.054L1.90157 10.3123C1.83133 10.0246 2.04837 9.74676 2.34569 9.74676H27.6543C27.9517 9.74676 28.1687 10.0246 28.0985 10.3123Z" fill="#A4231F"/>
<path d="M15.0003 12.625C14.4791 12.625 14.0566 13.0475 14.0566 13.5687V20.247C14.0566 20.7682 14.4791 21.1907 15.0003 21.1907C15.5215 21.1907 15.944 20.7682 15.944 20.247V13.5687C15.944 13.0475 15.5215 12.625 15.0003 12.625Z" fill="#A4231F"/>
<path d="M21.4964 12.6479C20.9879 12.5343 20.4832 12.8544 20.3696 13.363L18.8766 20.0413C18.7451 20.6297 19.1925 21.1911 19.7984 21.1911C20.2305 21.1911 20.6203 20.8923 20.7185 20.4531L22.2115 13.7747C22.3251 13.2661 22.005 12.7616 21.4964 12.6479Z" fill="#A4231F"/>
<path d="M9.63037 13.363C9.5166 12.8544 9.01233 12.5342 8.50357 12.648C7.99499 12.7617 7.67485 13.2662 7.78856 13.7748L9.28157 20.4531C9.37977 20.8924 9.76945 21.1911 10.2016 21.1911C10.807 21.1911 11.2551 20.6302 11.1234 20.0414L9.63037 13.363Z" fill="#A4231F"/>
</svg>
