<svg width="24" height="28" viewBox="0 0 24 28" fill="none" xmlns="http://www.w3.org/2000/svg">
<path d="M23.7615 10.8201L20.7397 7.77623C20.4217 7.45593 19.9061 7.45593 19.5881 7.77623C19.27 8.09654 19.27 8.61596 19.5881 8.93632L21.2197 10.5799H17.5397V0.820312C17.5397 0.367281 17.1751 0 16.7254 0H0.81435C0.813536 0 0.812884 0.000109375 0.81207 0.000109375C0.671025 0.000492188 0.530088 0.0376797 0.404081 0.111781C0.153858 0.258727 0 0.5285 0 0.820312V21.9801C0 22.2757 0.15793 22.5485 0.413364 22.6941L9.538 27.8937C9.66248 27.9646 9.8007 28 9.93898 28C10.0807 28 10.2226 27.9627 10.3493 27.8883C10.5995 27.7413 10.7533 27.4715 10.7533 27.1797V22.8003H16.7253C17.1751 22.8003 17.5397 22.433 17.5397 21.98V12.2205H21.2196L19.588 13.864C19.27 14.1844 19.27 14.7038 19.588 15.0241C19.747 15.1843 19.9554 15.2644 20.1638 15.2644C20.3722 15.2644 20.5806 15.1843 20.7396 15.0241L23.7614 11.9802C24.0795 11.6599 24.0795 11.1404 23.7615 10.8201ZM9.12463 25.7731L1.6287 21.5016V2.22688L9.12463 6.49835V25.7731ZM15.911 21.1597H10.7533V6.01995C10.7533 5.7243 10.5954 5.45152 10.34 5.30595L3.90779 1.64062H15.911V10.5798H14.0109C13.5612 10.5798 13.1965 10.9471 13.1965 11.4002C13.1965 11.8532 13.5612 12.2205 14.0109 12.2205H15.911V21.1597Z" fill="#A4231F"/>
</svg>
