<svg width="36" height="36" viewBox="0 0 36 36" fill="none" xmlns="http://www.w3.org/2000/svg">
<path d="M14.4155 12.643L12.5859 23.3796H15.5121L17.3431 12.643H14.4155Z" fill="#71867E"/>
<path d="M10.1312 12.655L7.26533 19.9771L6.95977 18.8715C6.39456 17.5394 4.79001 15.6263 2.90625 14.4206L5.52681 23.3743L8.62302 23.3691L13.2312 12.6527L10.1312 12.655Z" fill="#71867E"/>
<path d="M5.84923 13.4234C5.67914 12.7694 5.18619 12.5745 4.57432 12.5511H0.0376301L0 12.7649C3.53046 13.6213 5.86654 15.685 6.83589 18.1663L5.84923 13.4234Z" fill="#71867E"/>
<path d="M23.2723 14.7013C24.2296 14.6863 24.9235 14.8955 25.4624 15.1123L25.7265 15.2364L26.1224 12.9094C25.5429 12.6919 24.6345 12.4586 23.5011 12.4586C20.6096 12.4586 18.5716 13.9149 18.5557 16.0018C18.5369 17.5439 20.0075 18.4049 21.1184 18.9189C22.2586 19.4458 22.6409 19.7807 22.6356 20.251C22.6266 20.9698 21.7265 21.2994 20.8858 21.2994C19.714 21.2994 19.0916 21.1376 18.1305 20.7372L17.7535 20.5656L17.3418 22.9687C18.0267 23.269 19.2903 23.5271 20.6021 23.5407C23.678 23.5407 25.6769 22.1017 25.6979 19.8717C25.7107 18.6518 24.9303 17.7208 23.2392 16.9569C22.2157 16.4587 21.5895 16.1275 21.5955 15.6248C21.5955 15.1785 22.1268 14.7013 23.2723 14.7013Z" fill="#71867E"/>
<path d="M33.6328 12.655H31.372C30.6698 12.655 30.1475 12.8462 29.8389 13.5461L25.4941 23.3856H28.567C28.567 23.3856 29.0682 22.0626 29.1819 21.7728C29.5183 21.7728 32.5039 21.7773 32.9291 21.7773C33.0164 22.1521 33.2858 23.3856 33.2858 23.3856H36.0005L33.6328 12.655ZM30.0241 19.5752C30.2649 18.9588 31.1898 16.5746 31.1898 16.5746C31.174 16.6039 31.4284 15.9537 31.5797 15.5495L31.7769 16.4752C31.7769 16.4752 32.3376 19.0386 32.455 19.5752H30.0241Z" fill="#71867E"/>
</svg>
