<svg width="42" height="42" viewBox="0 0 42 42" fill="none" xmlns="http://www.w3.org/2000/svg">
<g clip-path="url(#clip0)">
<path d="M4.20014 11.1956V16.8C4.18123 16.995 4.2033 17.1917 4.26494 17.3776C4.32658 17.5635 4.42643 17.7345 4.55807 17.8795C4.68971 18.0245 4.85022 18.1404 5.02931 18.2197C5.2084 18.299 5.40209 18.34 5.59795 18.34C5.79381 18.34 5.98751 18.299 6.16659 18.2197C6.34568 18.1404 6.5062 18.0245 6.63783 17.8795C6.76947 17.7345 6.86932 17.5635 6.93096 17.3776C6.9926 17.1917 7.01468 16.995 6.99576 16.8V11.1956H8.40014V11.3269C8.43384 11.6743 8.59566 11.9966 8.85407 12.2312C9.11248 12.4657 9.44897 12.5957 9.79795 12.5957C10.1469 12.5957 10.4834 12.4657 10.7418 12.2312C11.0002 11.9966 11.1621 11.6743 11.1958 11.3269V8.26877C11.2147 8.07383 11.1926 7.87708 11.131 7.69118C11.0693 7.50527 10.9695 7.33431 10.8378 7.18928C10.7062 7.04426 10.5457 6.92837 10.3666 6.84906C10.1875 6.76976 9.99381 6.72879 9.79795 6.72879C9.60209 6.72879 9.4084 6.76976 9.22931 6.84906C9.05022 6.92837 8.88971 7.04426 8.75807 7.18928C8.62643 7.33431 8.52658 7.50527 8.46494 7.69118C8.4033 7.87708 8.38123 8.07383 8.40014 8.26877V8.40002H4.20014C4.00519 8.38111 3.80845 8.40318 3.62254 8.46483C3.43663 8.52647 3.26568 8.62631 3.12065 8.75795C2.97562 8.88959 2.85974 9.05011 2.78043 9.22919C2.70112 9.40828 2.66016 9.60197 2.66016 9.79784C2.66016 9.9937 2.70112 10.1874 2.78043 10.3665C2.85974 10.5456 2.97562 10.7061 3.12065 10.8377C3.26568 10.9694 3.43663 11.0692 3.62254 11.1308C3.80845 11.1925 4.00519 11.2146 4.20014 11.1956Z" fill="white"/>
<path d="M4.19943 22.4044V28.0088C4.18052 28.2037 4.20259 28.4005 4.26424 28.5864C4.32588 28.7723 4.42572 28.9433 4.55736 29.0883C4.689 29.2333 4.84952 29.3492 5.02861 29.4285C5.20769 29.5078 5.40139 29.5488 5.59725 29.5488C5.79311 29.5488 5.9868 29.5078 6.16589 29.4285C6.34497 29.3492 6.50549 29.2333 6.63713 29.0883C6.76877 28.9433 6.86862 28.7723 6.93026 28.5864C6.9919 28.4005 7.01397 28.2037 6.99506 28.0088V22.4044H8.39944V22.5357C8.38053 22.7306 8.4026 22.9274 8.46424 23.1133C8.52588 23.2992 8.62573 23.4701 8.75737 23.6152C8.889 23.7602 9.04952 23.8761 9.22861 23.9554C9.4077 24.0347 9.60139 24.0756 9.79725 24.0756C9.99311 24.0756 10.1868 24.0347 10.3659 23.9554C10.545 23.8761 10.7055 23.7602 10.8371 23.6152C10.9688 23.4701 11.0686 23.2992 11.1303 23.1133C11.1919 22.9274 11.214 22.7306 11.1951 22.5357V19.4775C11.214 19.2826 11.1919 19.0858 11.1303 18.8999C11.0686 18.714 10.9688 18.5431 10.8371 18.398C10.7055 18.253 10.545 18.1371 10.3659 18.0578C10.1868 17.9785 9.99311 17.9375 9.79725 17.9375C9.60139 17.9375 9.4077 17.9785 9.22861 18.0578C9.04952 18.1371 8.889 18.253 8.75737 18.398C8.62573 18.5431 8.52588 18.714 8.46424 18.8999C8.4026 19.0858 8.38053 19.2826 8.39944 19.4775V19.6088H4.19943C3.85208 19.6425 3.52971 19.8043 3.29516 20.0627C3.0606 20.3211 2.93066 20.6576 2.93066 21.0066C2.93066 21.3556 3.0606 21.6921 3.29516 21.9505C3.52971 22.2089 3.85208 22.3707 4.19943 22.4044Z" fill="white"/>
<path d="M32.1958 4.99255e-06H11.1958C9.64402 -0.00184996 8.13587 0.513243 6.90947 1.46394C5.68306 2.41465 4.80828 3.74679 4.42326 5.25C4.35342 5.60227 4.42118 5.9679 4.61261 6.27174C4.80404 6.57558 5.10459 6.79455 5.45249 6.88362C5.80038 6.9727 6.16918 6.92511 6.48307 6.75065C6.79697 6.57619 7.0321 6.28811 7.14014 5.94563C7.37041 5.04478 7.89399 4.24621 8.62832 3.67586C9.36266 3.1055 10.266 2.79581 11.1958 2.79563H32.1958C33.3097 2.79563 34.378 3.23813 35.1656 4.02578C35.9533 4.81343 36.3958 5.88172 36.3958 6.99563V35.0044C36.3958 36.1183 35.9533 37.1866 35.1656 37.9742C34.378 38.7619 33.3097 39.2044 32.1958 39.2044H11.1958C10.0819 39.2044 9.01357 38.7619 8.22591 37.9742C7.43826 37.1866 6.99576 36.1183 6.99576 35.0044V33.6H8.40014V33.7313C8.38123 33.9262 8.4033 34.1229 8.46494 34.3089C8.52658 34.4948 8.62643 34.6657 8.75807 34.8107C8.88971 34.9558 9.05022 35.0717 9.22931 35.151C9.4084 35.2303 9.60209 35.2712 9.79795 35.2712C9.99381 35.2712 10.1875 35.2303 10.3666 35.151C10.5457 35.0717 10.7062 34.9558 10.8378 34.8107C10.9695 34.6657 11.0693 34.4948 11.131 34.3089C11.1926 34.1229 11.2147 33.9262 11.1958 33.7313V30.6731C11.1621 30.3258 11.0002 30.0034 10.7418 29.7689C10.4834 29.5343 10.1469 29.4044 9.79795 29.4044C9.44897 29.4044 9.11248 29.5343 8.85407 29.7689C8.59566 30.0034 8.43384 30.3258 8.40014 30.6731V30.8044H4.20014C4.00519 30.7855 3.80845 30.8075 3.62254 30.8692C3.43663 30.9308 3.26568 31.0307 3.12065 31.1623C2.97562 31.2939 2.85974 31.4545 2.78043 31.6336C2.70112 31.8126 2.66016 32.0063 2.66016 32.2022C2.66016 32.3981 2.70112 32.5917 2.78043 32.7708C2.85974 32.9499 2.97562 33.1104 3.12065 33.2421C3.26568 33.3737 3.43663 33.4736 3.62254 33.5352C3.80845 33.5968 4.00519 33.6189 4.20014 33.6V35.0044C4.20361 36.8587 4.94176 38.636 6.25294 39.9472C7.56412 41.2584 9.34147 41.9965 11.1958 42H32.1958C34.0501 41.9965 35.8274 41.2584 37.1386 39.9472C38.4498 38.636 39.1879 36.8587 39.1914 35.0044V6.99563C39.1879 5.14134 38.4498 3.36399 37.1386 2.05281C35.8274 0.741625 34.0501 0.00347421 32.1958 4.99255e-06Z" fill="white"/>
<path d="M22.4043 22.7719C21.366 22.7719 20.3509 22.464 19.4876 21.8871C18.6242 21.3102 17.9513 20.4903 17.5539 19.531C17.1566 18.5717 17.0526 17.5161 17.2552 16.4977C17.4577 15.4793 17.9578 14.5438 18.692 13.8096C19.4262 13.0753 20.3617 12.5753 21.3801 12.3728C22.3985 12.1702 23.4541 12.2742 24.4134 12.6715C25.3727 13.0689 26.1927 13.7418 26.7695 14.6051C27.3464 15.4685 27.6543 16.4835 27.6543 17.5219C27.6543 18.9143 27.1012 20.2496 26.1166 21.2342C25.1321 22.2188 23.7967 22.7719 22.4043 22.7719ZM22.4043 15.1594C21.9293 15.1594 21.4649 15.3003 21.0699 15.5642C20.6749 15.8281 20.3671 16.2032 20.1853 16.6421C20.0035 17.081 19.9559 17.5639 20.0486 18.0298C20.1413 18.4958 20.37 18.9237 20.7059 19.2596C21.0418 19.5955 21.4698 19.8243 21.9357 19.917C22.4016 20.0097 22.8846 19.9621 23.3235 19.7803C23.7624 19.5985 24.1375 19.2907 24.4014 18.8957C24.6653 18.5007 24.8062 18.0363 24.8062 17.5613C24.8062 16.9242 24.5531 16.3133 24.1027 15.8629C23.6523 15.4124 23.0413 15.1594 22.4043 15.1594Z" fill="white"/>
<path d="M27.9955 29.3213C27.801 29.3235 27.6083 29.2849 27.4297 29.2081C27.2511 29.1312 27.0906 29.0178 26.9586 28.8751C26.3778 28.2332 25.6689 27.7201 24.8777 27.369C24.0865 27.0179 23.2305 26.8365 22.3648 26.8365C21.4992 26.8365 20.6432 27.0179 19.8519 27.369C19.0607 27.7201 18.3519 28.2332 17.7711 28.8751C17.6563 29.0418 17.5068 29.1818 17.3328 29.2854C17.1589 29.3889 16.9646 29.4537 16.7633 29.4752C16.562 29.4966 16.3584 29.4743 16.1666 29.4098C15.9747 29.3452 15.799 29.24 15.6516 29.1012C15.5042 28.9624 15.3886 28.7934 15.3126 28.6057C15.2366 28.4181 15.2021 28.2162 15.2115 28.014C15.2208 27.8118 15.2737 27.6139 15.3666 27.4341C15.4596 27.2542 15.5903 27.0966 15.7498 26.9719C16.5921 26.0529 17.6163 25.3191 18.7573 24.8171C19.8984 24.315 21.1314 24.0558 22.378 24.0558C23.6246 24.0558 24.8575 24.315 25.9986 24.8171C27.1396 25.3191 28.1638 26.0529 29.0061 26.9719C29.1891 27.1731 29.3097 27.4231 29.3534 27.6915C29.397 27.9599 29.3618 28.2352 29.252 28.484C29.1422 28.7328 28.9626 28.9443 28.7348 29.093C28.5071 29.2416 28.2411 29.3209 27.9692 29.3213H27.9955Z" fill="white"/>
</g>
<defs>
<clipPath id="clip0">
<rect width="42" height="42" fill="white"/>
</clipPath>
</defs>
</svg>
