<svg width="40" height="40" viewBox="0 0 40 40" fill="none" xmlns="http://www.w3.org/2000/svg">
<path d="M26.0295 18.5473C28.5889 16.6806 30.2556 13.6597 30.2556 10.2564C30.2556 4.60102 25.6546 0 19.9992 0C14.3438 0 9.74281 4.60102 9.74281 10.2564C9.74281 13.6597 11.4095 16.6806 13.969 18.5473C7.60648 20.982 3.07617 27.1509 3.07617 34.359C3.07617 37.4695 5.60672 40 8.71719 40H31.2812C34.3917 40 36.9223 37.4695 36.9223 34.359C36.9223 27.1509 32.392 20.982 26.0295 18.5473ZM12.8198 10.2564C12.8198 6.29766 16.0405 3.07695 19.9992 3.07695C23.958 3.07695 27.1787 6.29766 27.1787 10.2564C27.1787 14.2152 23.958 17.4359 19.9992 17.4359C16.0405 17.4359 12.8198 14.2152 12.8198 10.2564ZM31.2812 36.923H8.71719C7.30336 36.923 6.15312 35.7728 6.15312 34.3589C6.15312 26.7241 12.3644 20.5127 19.9993 20.5127C27.6342 20.5127 33.8455 26.724 33.8455 34.3589C33.8454 35.7728 32.6952 36.923 31.2812 36.923Z" fill="white"/>
</svg>
