<svg width="126" height="126" viewBox="0 0 126 126" fill="none" xmlns="http://www.w3.org/2000/svg">
<g clip-path="url(#clip0)">
<path d="M74.133 84.6886L81.0591 83.5657C81.5379 83.4876 82.0295 83.5657 82.4595 83.7905L123.32 105.193C124.164 105.636 124.637 106.563 124.499 107.507C124.363 108.451 123.644 109.206 122.708 109.389L37.8445 125.958C37.2121 126.082 36.5583 125.929 36.0462 125.537L2.79116 100.105C2.07774 99.56 1.75719 98.6423 1.97611 97.7716C2.19502 96.9008 2.91137 96.2431 3.79777 96.1004L40.0199 90.2396L74.133 84.6886Z" fill="#78797B"/>
<path d="M72.1549 94.1273L79.5256 92.9233C80.0065 92.8431 80.5 92.9223 80.9329 93.148L96.4659 101.29C97.3103 101.733 97.7833 102.661 97.6455 103.605C97.5077 104.549 96.7884 105.303 95.8522 105.485L40.0882 116.362C39.4569 116.486 38.8021 116.333 38.29 115.942L24.8064 105.631C24.095 105.087 23.7754 104.17 23.9933 103.3C24.2113 102.43 24.9266 101.774 25.8111 101.629L44.3062 98.6218L72.1549 94.1273Z" fill="#3D324C"/>
<path d="M5.38867 60.9807C5.7014 60.7061 8.96652 62.3938 9.30368 62.5424C12.6196 64.0005 15.83 65.6892 18.9084 67.5989C26.8802 72.4775 33.5648 79.1973 38.4014 87.1944C42.3369 93.7481 45.3167 105.926 54.8296 105.926C59.3866 105.926 64.5663 106.074 68.0298 102.597C72.2634 98.3433 72.3396 92.1346 73.6482 86.6423C80.1325 60.7393 92.5157 36.6863 109.829 16.3578C110.893 15.0864 111.972 13.8276 113.067 12.5826C115.29 10.0836 117.649 7.70883 120.133 5.46791C120.47 5.16202 121.054 4.53558 121.751 3.82021C122.389 3.16933 122.571 2.19694 122.21 1.3594C121.851 0.521867 121.02 -0.01564 120.108 -3.45777e-06C105.8 0.454434 71.7552 7.94436 52.5818 65.4752C52.5818 65.4752 23.3668 45.2493 5.38867 60.9807Z" fill="#71867E"/>
<path d="M77.3011 40.7548C76.9199 40.7548 76.5456 40.658 76.2134 40.4714C75.1286 39.8694 74.7377 38.5021 75.3387 37.4173C86.7798 16.821 100.448 9.81684 101.016 9.52854C102.126 8.97051 103.478 9.41713 104.037 10.5263C104.595 11.6365 104.148 12.9881 103.039 13.5471C102.868 13.6341 89.9735 20.3403 79.2742 39.5977C78.8765 40.314 78.12 40.7577 77.3011 40.7548Z" fill="#F9F1E6"/>
<path d="M70.5588 51.9906C69.7799 51.9906 69.0576 51.587 68.6482 50.9254C68.2387 50.2628 68.2015 49.436 68.5495 48.7392L70.7972 44.2447C71.1559 43.5264 71.8713 43.0543 72.6726 43.0064C73.475 42.9585 74.2412 43.3416 74.6829 44.0121C75.1256 44.6825 75.1765 45.5376 74.8178 46.2559L72.57 50.7505C72.1889 51.5118 71.41 51.9916 70.5588 51.9906Z" fill="#F9F1E6"/>
</g>
<defs>
<clipPath id="clip0">
<rect width="126" height="126" fill="white"/>
</clipPath>
</defs>
</svg>
