<svg width="14" height="9" viewBox="0 0 14 9" fill="none" xmlns="http://www.w3.org/2000/svg">
<path d="M0.000241024 7.94143C-0.00430996 8.14778 0.0556724 8.35042 0.171941 8.52117C0.28821 8.69193 0.455019 8.82231 0.649026 8.8942C0.843034 8.96608 1.05465 8.9759 1.25451 8.92228C1.45438 8.86867 1.63244 8.75428 1.7641 8.59503L6.9839 2.5187L12.2019 8.59503C12.2831 8.70519 12.3861 8.79745 12.5047 8.86603C12.6233 8.93461 12.7549 8.97802 12.8911 8.99356C13.0273 9.0091 13.1652 8.99643 13.2963 8.95634C13.4273 8.91625 13.5487 8.8496 13.6528 8.76057C13.7568 8.67154 13.8412 8.56205 13.9008 8.43895C13.9605 8.31585 13.994 8.1818 13.9993 8.04518C14.0045 7.90857 13.9816 7.77234 13.9316 7.64502C13.8817 7.51771 13.8059 7.40205 13.709 7.30529L7.74041 0.348438C7.64693 0.239189 7.53089 0.151462 7.40011 0.0913064C7.26934 0.0311515 7.127 6.42143e-07 6.98298 6.48438e-07C6.83896 6.54734e-07 6.69662 0.0311515 6.56585 0.0913064C6.43507 0.151462 6.31892 0.239189 6.22543 0.348438L0.251073 7.30529C0.094546 7.48103 0.00555682 7.70644 1.13253e-05 7.94143L0.000241024 7.94143Z" fill="white"/>
</svg>
