<svg width="34" height="40" viewBox="0 0 34 40" fill="none" xmlns="http://www.w3.org/2000/svg">
<path d="M23.0295 18.5473C25.5889 16.6806 27.2556 13.6597 27.2556 10.2564C27.2556 4.60102 22.6546 0 16.9992 0C11.3438 0 6.74281 4.60102 6.74281 10.2564C6.74281 13.6597 8.40945 16.6806 10.969 18.5473C4.60648 20.982 0.0761719 27.1509 0.0761719 34.359C0.0761719 37.4695 2.60672 40 5.71719 40H28.2812C31.3917 40 33.9223 37.4695 33.9223 34.359C33.9223 27.1509 29.392 20.982 23.0295 18.5473ZM9.81977 10.2564C9.81977 6.29766 13.0405 3.07695 16.9992 3.07695C20.958 3.07695 24.1787 6.29766 24.1787 10.2564C24.1787 14.2152 20.958 17.4359 16.9992 17.4359C13.0405 17.4359 9.81977 14.2152 9.81977 10.2564ZM28.2812 36.923H5.71719C4.30336 36.923 3.15312 35.7728 3.15312 34.3589C3.15312 26.7241 9.36438 20.5127 16.9993 20.5127C24.6342 20.5127 30.8455 26.724 30.8455 34.3589C30.8454 35.7728 29.6952 36.923 28.2812 36.923Z" fill="white"/>
</svg>
